<svg xmlns="http://www.w3.org/2000/svg" viewBox="0 0 305.09 150.96"><defs><style>.cls-1{fill:#006ab3;}.cls-2{fill:#929395;}.cls-3{fill:#ffed00;}.cls-4{fill:#97bf0d;}.cls-5{fill:#fff;}</style></defs><title>Kulturstiftelsen</title><g id="Layer_2" data-name="Layer 2"><g id="Lager_2" data-name="Lager 2"><path class="cls-1" d="M16.49,150.46c-8.82,0-16-5.36-16-12V12.45c0-6.59,7.17-12,16-12H288.6c8.82,0,16,5.36,16,12V138.51c0,6.59-7.17,12-16,12Z"/><path class="cls-2" d="M288.6,1c8.54,0,15.49,5.14,15.49,11.45V138.51c0,6.31-6.95,11.45-15.49,11.45H16.49C7.95,150,1,144.82,1,138.51V12.45C1,6.14,7.95,1,16.49,1H288.6m0-1H16.49C7.38,0,0,5.57,0,12.45V138.51C0,145.39,7.38,151,16.49,151H288.6c9.11,0,16.49-5.58,16.49-12.45V12.45C305.09,5.57,297.71,0,288.6,0Z"/></g><g id="Lager_1" data-name="Lager 1"><rect class="cls-3" x="12.58" y="111.6" width="25.45" height="25.45"/><rect class="cls-4" x="12.58" y="16.95" width="25.45" height="25.46"/><rect class="cls-3" x="267.12" y="111.6" width="25.45" height="25.45"/><rect class="cls-4" x="267.12" y="16.95" width="25.45" height="25.46"/><path class="cls-5" d="M12,52.38H25.36V72.55h.14c1.07-1.71,2.28-3.35,3.42-4.92L39.47,52.38h17L39.61,72.63l17.68,27.8H41.39L29.85,80.61,25.36,86v14.47H12Z"/><path class="cls-5" d="M76.11,52.38V78.47c0,7.55,2.78,12.4,8.91,12.4s8.91-4.49,8.91-12.4V52.38H107.4V78.11c0,15.68-8.34,23.16-23,23.16-13.76,0-21.81-7-21.81-23.52V52.38Z"/><path class="cls-5" d="M117.24,52.38h13.47V89.16h20.74v11.26H117.24Z"/><path class="cls-5" d="M160.15,63.36H146.6v-11h40.84v11H173.62v37.06H160.15Z"/><path class="cls-5" d="M208,52.38V78.47c0,7.55,2.78,12.4,8.91,12.4s8.91-4.49,8.91-12.4V52.38h13.47V78.11c0,15.68-8.34,23.16-23,23.16-13.76,0-21.81-7-21.81-23.52V52.38Z"/><path class="cls-5" d="M249.1,53a119.57,119.57,0,0,1,17-1.07c8.05,0,13.4,1.14,17.11,3.78,3.06,2.21,5,5.7,5,10.55,0,6.42-5.2,10.48-8.55,11.55v.29c3.21,1.35,5,4.49,6.34,8.48,1.64,4.92,3.28,12,4.21,13.83H276.47c-.78-1.43-2.07-4.78-3.71-11-1.5-5.77-3.42-6.91-7.91-6.91h-2.42v17.89H249.1Zm13.33,20h4c5.27,0,8.41-2.14,8.41-5.77s-2.71-5.49-7.27-5.49a29.22,29.22,0,0,0-5.13.29Z"/><path class="cls-5" d="M46.77,130.24a19.16,19.16,0,0,0,8.07,2c2.62,0,4-.83,4-2.24,0-1.21-1.29-2-4.7-3-4.78-1.33-8.73-3.78-8.73-8.65,0-5.07,4.57-8.81,11.85-8.81a21,21,0,0,1,8.57,1.58L64,117.27a17.69,17.69,0,0,0-6.9-1.45c-2.33,0-3.66.75-3.66,2,0,1.5,1.79,2,5.45,3.16,5.45,1.75,8,4.37,8,8.61,0,4.7-3.7,9-12.64,9a22.21,22.21,0,0,1-9.11-1.91Z"/><path class="cls-5" d="M78,116.43H70.1V110H93.93v6.4H85.86v21.62H78Z"/><path class="cls-5" d="M105.9,110v28H98V110Z"/><path class="cls-5" d="M111.64,110h19.71v6.32H119.5v4.87h11.14v6.32H119.5v10.52h-7.86Z"/><path class="cls-5" d="M142.82,116.43h-7.9V110h23.83v6.4h-8.07v21.62h-7.86Z"/><path class="cls-5" d="M182.11,127H170.72v4.78h12.72v6.32H162.86V110h20v6.32h-12.1v4.28h11.39Z"/><path class="cls-5" d="M188.18,110H196v21.46h12.1v6.57h-20Z"/><path class="cls-5" d="M213.26,130.24a19.16,19.16,0,0,0,8.07,2c2.62,0,4-.83,4-2.24,0-1.21-1.29-2-4.7-3-4.78-1.33-8.73-3.78-8.73-8.65,0-5.07,4.57-8.81,11.85-8.81a21,21,0,0,1,8.57,1.58l-1.79,6.15a17.69,17.69,0,0,0-6.9-1.45c-2.33,0-3.66.75-3.66,2,0,1.5,1.79,2,5.45,3.16,5.45,1.75,8,4.37,8,8.61,0,4.7-3.7,9-12.64,9a22.21,22.21,0,0,1-9.11-1.91Z"/><path class="cls-5" d="M257.46,127H246.06v4.78h12.72v6.32H238.2V110h20v6.32h-12.1v4.28h11.39Z"/><path class="cls-5" d="M44,18.43A19.52,19.52,0,0,1,48.43,18c2.5,0,4.48.4,5.86,1.88a7.52,7.52,0,0,1,1.86,5.34A8.77,8.77,0,0,1,54.31,31a7,7,0,0,1-5.25,2.35,6.42,6.42,0,0,1-.83,0v9.07H44Zm4.19,11.09a4.39,4.39,0,0,0,.7,0c2.11,0,3-1.7,3-4s-.77-3.79-2.72-3.79a2.8,2.8,0,0,0-1,.18Z"/><path class="cls-5" d="M71.08,29.8c0,9.17-2.88,12.89-7,12.89-4.9,0-6.82-5.85-6.82-12.53s2.34-12.39,7.14-12.39C69.61,17.78,71.08,24.24,71.08,29.8Zm-9.44.43c0,5.53.93,8.34,2.62,8.34S66.73,35,66.73,30c0-4.26-.58-8.13-2.5-8.13C62.57,21.89,61.64,25,61.64,30.24Z"/><path class="cls-5" d="M72.93,37.57a7.53,7.53,0,0,0,3.55.94,2.63,2.63,0,0,0,2.94-2.75c0-1.77-1-2.64-2.78-4-2.94-2-4.06-4.59-4.06-6.79,0-3.9,2.3-7.15,6.78-7.15a6.5,6.5,0,0,1,3.39.87l-.67,4.08A4.69,4.69,0,0,0,79.37,22a2.46,2.46,0,0,0-2.66,2.53c0,1.44.64,2.2,2.94,3.79a8,8,0,0,1,3.9,7c0,4.44-2.91,7.37-7.1,7.37a8.69,8.69,0,0,1-4.13-1Z"/><path class="cls-5" d="M88,22.44H84.23V18.06H96.07v4.37H92.23v20H88Z"/><path class="cls-5" d="M98,18.06h4.19V29h.1c.35-1,.67-2.09,1-3.14l2.88-7.8h4.64l-4.86,10.58,4.93,13.76h-4.61l-3.14-10.08-1,2v8.09H98Z"/><path class="cls-5" d="M124.64,29.8c0,9.17-2.88,12.89-7,12.89-4.9,0-6.82-5.85-6.82-12.53s2.34-12.39,7.14-12.39C123.17,17.78,124.64,24.24,124.64,29.8Zm-9.44.43c0,5.53.93,8.34,2.62,8.34S120.29,35,120.29,30c0-4.26-.58-8.13-2.5-8.13C116.13,21.89,115.2,25,115.2,30.24Z"/><path class="cls-5" d="M127,18.43a17.16,17.16,0,0,1,4.26-.47c2.72,0,4.61.72,6,2.17C139.07,22,140,25.22,140,29.95c0,4.91-1.12,8.42-3,10.29-1.47,1.55-3.58,2.35-6.56,2.35A21.7,21.7,0,0,1,127,42.3Zm4.19,20.23a2.55,2.55,0,0,0,.74.07c2,0,3.78-2.24,3.78-9,0-5-1.15-8-3.68-8a2.12,2.12,0,0,0-.83.11Z"/><path class="cls-5" d="M142.36,18.06h4.19V38.4h5.5v4h-9.7Z"/><path class="cls-5" d="M166.07,29.8c0,9.17-2.88,12.89-7,12.89-4.9,0-6.82-5.85-6.82-12.53s2.34-12.39,7.14-12.39C164.6,17.78,166.07,24.24,166.07,29.8Zm-9.44.43c0,5.53.93,8.34,2.62,8.34S161.72,35,161.72,30c0-4.26-.58-8.13-2.5-8.13C157.56,21.89,156.63,25,156.63,30.24Z"/><path class="cls-5" d="M170.52,22.44h-3.81V18.06h11.84v4.37h-3.84v20h-4.19Z"/><path class="cls-5" d="M183.22,22.44h-3.81V18.06h11.84v4.37h-3.84v20h-4.19Z"/><path class="cls-5" d="M202.23,31.72h-4.9v6.57h5.54v4.12h-9.73V18.06h9.38v4.12h-5.18v5.6h4.9Z"/><path class="cls-5" d="M205.42,18.43A22.28,22.28,0,0,1,210,18c2.3,0,4.38.4,5.76,1.81a6.67,6.67,0,0,1,1.73,5.06,6.58,6.58,0,0,1-3.33,6.07V31c1.47.69,2.21,2.2,2.62,4.84a43.46,43.46,0,0,0,1.38,6.61h-4.38a32.8,32.8,0,0,1-1.09-5.85c-.38-3-1.06-3.87-2.43-3.87h-.64v9.72h-4.19ZM209.62,29h.77c1.82,0,2.85-1.66,2.85-3.79s-.74-3.54-2.59-3.61a2.74,2.74,0,0,0-1,.14Z"/><path class="cls-5" d="M224.33,18.06V42.41h-4.19V18.06Z"/><path class="cls-5" d="M236.84,31.72h-4.9v6.57h5.54v4.12h-9.73V18.06h9.38v4.12h-5.18v5.6h4.9Z"/><path class="cls-5" d="M242.38,22.44h-3.81V18.06h11.84v4.37h-3.84v20h-4.19Z"/><path class="cls-5" d="M251.69,37.57a7.53,7.53,0,0,0,3.55.94,2.63,2.63,0,0,0,2.94-2.75c0-1.77-1-2.64-2.78-4-2.94-2-4.06-4.59-4.06-6.79,0-3.9,2.3-7.15,6.78-7.15a6.5,6.5,0,0,1,3.39.87l-.67,4.08a4.69,4.69,0,0,0-2.72-.83,2.46,2.46,0,0,0-2.66,2.53c0,1.44.64,2.2,2.94,3.79a8,8,0,0,1,3.9,7c0,4.44-2.91,7.37-7.1,7.37a8.69,8.69,0,0,1-4.13-1Z"/></g></g></svg>