<svg xmlns="http://www.w3.org/2000/svg" viewBox="0 0 340.34 46.86"><defs><style>.cls-1{fill:#fff;}</style></defs><title>Kultur i Vast</title><g id="Layer_2" data-name="Layer 2"><g id="Lager_1" data-name="Lager 1"><path class="cls-1" d="M0,3.2H8.61V21.65L24.11,3.2H34.69L17,23.43,35.42,46.12H24.17L8.73,26.2H8.61V46.12H0Z"/><path class="cls-1" d="M66.54,46.12H58.73v-4.3h-.12a13.21,13.21,0,0,1-10.39,5c-7.5,0-10.76-5.29-10.76-12.42v-20h8.24V31.36c0,3.87.06,9.1,5.35,9.1C57,40.47,58.3,34,58.3,30V14.45h8.24Z"/><path class="cls-1" d="M76.44,0h8.24V46.12H76.44Z"/><path class="cls-1" d="M96.49,20.48H90.4v-6h6.09V8.12l8.24-2.64v9H112v6h-7.32V35.24c0,2.71.74,5.23,3.87,5.23a7.37,7.37,0,0,0,3.75-.86l.25,6.52a21.68,21.68,0,0,1-6.09.74c-6.46,0-10-4-10-10.27Z"/><path class="cls-1" d="M146.79,46.12H139v-4.3h-.12a13.21,13.21,0,0,1-10.39,5c-7.5,0-10.76-5.29-10.76-12.42v-20h8.24V31.36c0,3.87.06,9.1,5.35,9.1,6,0,7.26-6.46,7.26-10.52V14.45h8.24Z"/><path class="cls-1" d="M155.83,14.45h7.32v7.2h.12c.37-3,3.75-7.93,8.67-7.93a9,9,0,0,1,2.52.25v8.3a8.4,8.4,0,0,0-3.69-.68c-6.7,0-6.7,8.36-6.7,12.91V46.12h-8.24Z"/><path class="cls-1" d="M192.38.8h8.24V8.67h-8.24Zm0,13.65h8.24V46.12h-8.24Z"/><path class="cls-1" d="M217,3.2h9.23l11,33.7h.12L248.22,3.2h8.55L242.31,46.12H231.73Z"/><path class="cls-1" d="M260.39,16.11a28.35,28.35,0,0,1,11-2.4c9.66,0,13.65,4,13.65,13.35v4.06c0,3.2.06,5.6.12,7.93s.18,4.61.37,7.07h-7.26a38.89,38.89,0,0,1-.37-4.74h-.12A11.31,11.31,0,0,1,268,46.86c-5.6,0-11.07-3.38-11.07-9.41,0-4.74,2.28-7.5,5.41-9s7.2-1.84,10.64-1.84h4.55c0-5.1-2.28-6.83-7.13-6.83a16.58,16.58,0,0,0-9.78,3.44Zm1.72-7.44V1.54h7.13V8.67ZM270,40.84A7,7,0,0,0,275.83,38a10.5,10.5,0,0,0,1.72-6.52H274c-3.69,0-9.16.61-9.16,5.47C264.82,39.67,267.09,40.84,270,40.84Zm11.87-39.3V8.67h-7.13V1.54Z"/><path class="cls-1" d="M312.91,21.09a20.21,20.21,0,0,0-7.38-1.35c-2.22,0-4.86.8-4.86,3.51,0,5,14.33,1.85,14.33,13.28,0,7.38-6.58,10.33-13.28,10.33a36.93,36.93,0,0,1-9.35-1.35l.49-6.77A18.1,18.1,0,0,0,301,40.84c2.09,0,5.41-.8,5.41-3.87,0-6.21-14.33-2-14.33-13.41,0-6.83,6-9.84,12.42-9.84a37.92,37.92,0,0,1,9,1.17Z"/><path class="cls-1" d="M324.23,20.48h-6.09v-6h6.09V8.12l8.24-2.64v9h7.32v6h-7.32V35.24c0,2.71.74,5.23,3.87,5.23a7.36,7.36,0,0,0,3.75-.86l.25,6.52a21.68,21.68,0,0,1-6.09.74c-6.46,0-10-4-10-10.27Z"/></g></g></svg>